<svg width="36" height="37" viewBox="0 0 36 37" fill="none" xmlns="http://www.w3.org/2000/svg">
<path d="M18 0.522461C27.9414 0.522461 36 8.58106 36 18.5225C36 28.4639 27.9414 36.5225 18 36.5225C8.0586 36.5225 0 28.4639 0 18.5225C0 8.58106 8.0586 0.522461 18 0.522461ZM12.2814 24.5399C11.5704 23.6813 10.6866 23.3753 9.6192 23.6237L9.3492 23.6975L8.2872 25.5263C8.08691 25.8523 8.02057 26.2432 8.10208 26.6171C8.18358 26.991 8.4066 27.3189 8.72443 27.532C9.04225 27.7451 9.43022 27.827 9.80706 27.7605C10.1839 27.6939 10.5204 27.4841 10.746 27.1751L10.8576 27.0077L12.2796 24.5399H12.2814ZM20.178 12.5105C19.2996 13.2377 18.414 15.3851 19.656 17.5271L25.128 27.0059C25.3175 27.3279 25.6215 27.5665 25.9794 27.6741C26.3372 27.7816 26.7224 27.7502 27.058 27.586C27.3937 27.4218 27.655 27.137 27.7897 26.7885C27.9244 26.44 27.9227 26.0535 27.7848 25.7063L27.6966 25.5263L26.253 23.0207H28.395C28.5896 23.0211 28.7823 22.9831 28.9622 22.9088C29.142 22.8345 29.3054 22.7254 29.4429 22.5877C29.5804 22.45 29.6894 22.2865 29.7635 22.1066C29.8375 21.9267 29.8753 21.7338 29.8746 21.5393C29.8755 21.1783 29.7442 20.8295 29.5054 20.5589C29.2666 20.2882 28.9369 20.1145 28.5786 20.0705L28.3932 20.0597H24.5412L20.592 13.2251L20.178 12.5123V12.5105ZM20.6784 7.03126C20.3676 6.85271 20.0026 6.79263 19.6509 6.86211C19.2993 6.93158 18.9846 7.12592 18.765 7.40926L18.6534 7.57486L17.9928 8.71426L17.3466 7.57486C17.1571 7.25284 16.8531 7.0142 16.4952 6.90664C16.1374 6.79909 15.7522 6.83054 15.4166 6.99472C15.0809 7.1589 14.8196 7.4437 14.6849 7.7922C14.5501 8.14069 14.5519 8.5272 14.6898 8.87446L14.778 9.05446L16.2864 11.6771L11.4534 20.0525H7.6788C7.48436 20.052 7.29175 20.0899 7.11202 20.1641C6.93229 20.2383 6.76899 20.3473 6.63151 20.4848C6.49402 20.6223 6.38505 20.7856 6.31086 20.9653C6.23667 21.145 6.19872 21.3376 6.1992 21.5321C6.1992 22.2899 6.7608 22.9109 7.4934 23.0027L7.6788 23.0135H21.1428C21.7548 21.8615 21.0348 20.2253 19.6848 20.0651L19.467 20.0525H14.8716L21.222 9.05446C21.4182 8.71408 21.4711 8.3097 21.3692 7.93028C21.2673 7.55086 21.0188 7.22748 20.6784 7.03126Z" fill="#222222"/>
</svg>
