<svg width="32" height="51" viewBox="0 0 32 51" fill="none" xmlns="http://www.w3.org/2000/svg">
<path d="M15.9999 12.7558C16.4136 12.7558 16.8104 12.9202 17.103 13.2127C17.3955 13.5053 17.5599 13.9021 17.5599 14.3158V32.39L21.1354 28.8113C21.4284 28.5184 21.8256 28.3538 22.2399 28.3538C22.6542 28.3538 23.0515 28.5184 23.3444 28.8113C23.6373 29.1043 23.8019 29.5016 23.8019 29.9158C23.8019 30.3301 23.6373 30.7274 23.3444 31.0203L17.1044 37.2603C16.8136 37.5504 16.42 37.7141 16.0093 37.7158H15.9905C15.5808 37.7136 15.1884 37.5499 14.8985 37.2603L8.65854 31.0203C8.36562 30.7278 8.20089 30.3309 8.20059 29.9169C8.2003 29.503 8.36447 29.1058 8.65698 28.8129C8.9495 28.52 9.34639 28.3552 9.76036 28.3549C10.1743 28.3547 10.5715 28.5188 10.8644 28.8113L14.4399 32.39V14.3158C14.4399 13.9021 14.6043 13.5053 14.8968 13.2127C15.1894 12.9202 15.5862 12.7558 15.9999 12.7558ZM0.399902 4.95582C0.399902 3.7146 0.892972 2.52423 1.77064 1.64656C2.64831 0.768888 3.83869 0.275818 5.0799 0.275818H26.9199C28.1611 0.275818 29.3515 0.768888 30.2292 1.64656C31.1068 2.52423 31.5999 3.7146 31.5999 4.95582V45.5158C31.5999 46.757 31.1068 47.9474 30.2292 48.8251C29.3515 49.7027 28.1611 50.1958 26.9199 50.1958H5.0799C3.83869 50.1958 2.64831 49.7027 1.77064 48.8251C0.892972 47.9474 0.399902 46.757 0.399902 45.5158V4.95582ZM5.0799 3.39582C4.66616 3.39582 4.26937 3.56017 3.97682 3.85273C3.68426 4.14529 3.5199 4.54208 3.5199 4.95582V45.5158C3.5199 45.9296 3.68426 46.3263 3.97682 46.6189C4.26937 46.9115 4.66616 47.0758 5.0799 47.0758H26.9199C27.3336 47.0758 27.7304 46.9115 28.023 46.6189C28.3155 46.3263 28.4799 45.9296 28.4799 45.5158V4.95582C28.4799 4.54208 28.3155 4.14529 28.023 3.85273C27.7304 3.56017 27.3336 3.39582 26.9199 3.39582H5.0799Z" fill="#E31C5D"/>
</svg>
