<svg width="24" height="24" viewBox="0 0 24 24" fill="none" xmlns="http://www.w3.org/2000/svg">
<g clip-path="url(#clip0_323_1955)">
<path fill-rule="evenodd" clip-rule="evenodd" d="M11.0667 4.59017C11.3359 4.3963 11.6634 4.2915 12 4.2915C12.3366 4.2915 12.6641 4.3963 12.9333 4.59017L18.3778 8.51017C18.571 8.64927 18.7278 8.82964 18.8358 9.037C18.9438 9.24436 19 9.473 19 9.70484V16.7982C19 17.1942 18.8361 17.5741 18.5444 17.8541C18.2527 18.1342 17.857 18.2915 17.4444 18.2915H6.55556C6.143 18.2915 5.74733 18.1342 5.45561 17.8541C5.16389 17.5741 5 17.1942 5 16.7982V9.70484C5 9.473 5.05623 9.24436 5.16422 9.037C5.27222 8.82964 5.42903 8.64927 5.62222 8.51017L11.0667 4.59017Z" fill="#222222"/>
</g>
<defs>
<clipPath id="clip0_323_1955">
<rect width="24" height="24" fill="white"/>
</clipPath>
</defs>
</svg>
