<svg width="42" height="43" viewBox="0 0 42 43" fill="none" xmlns="http://www.w3.org/2000/svg">
<path d="M38.16 0.457275C40.1692 0.457275 41.8 2.088 41.8 4.09728V10.4267C41.7997 11.4716 41.5133 12.4965 40.9717 13.3902C40.4301 14.2838 39.654 15.012 38.7278 15.4957L25.6612 22.3181C27.7545 23.3679 29.4321 25.0934 30.4227 27.2153C31.4132 29.3372 31.6586 31.7313 31.1192 34.01C30.5798 36.2888 29.2872 38.3188 27.4505 39.7715C25.6138 41.2242 23.3406 42.0145 20.9989 42.0145C18.6572 42.0145 16.384 41.2242 14.5473 39.7715C12.7106 38.3188 11.418 36.2888 10.8786 34.01C10.3392 31.7313 10.5846 29.3372 11.5752 27.2153C12.5657 25.0934 14.2434 23.3679 16.3366 22.3181L3.27419 15.4978C2.34726 15.0142 1.57059 14.2858 1.0286 13.3917C0.4866 12.4977 0.200004 11.4722 0.199951 10.4267V4.09728C0.199951 2.088 1.83067 0.457275 3.83995 0.457275H38.16ZM21 24.3378C19.0692 24.3378 17.2175 25.1048 15.8522 26.47C14.487 27.8353 13.72 29.687 13.72 31.6178C13.72 33.5485 14.487 35.4002 15.8522 36.7655C17.2175 38.1308 19.0692 38.8978 21 38.8978C22.9307 38.8978 24.7824 38.1308 26.1477 36.7655C27.513 35.4002 28.28 33.5485 28.28 31.6178C28.28 29.687 27.513 27.8353 26.1477 26.47C24.7824 25.1048 22.9307 24.3378 21 24.3378ZM28.28 3.5752H13.72V17.4322L20.7587 21.1096C20.8331 21.1486 20.9159 21.169 21 21.169C21.084 21.169 21.1668 21.1486 21.2412 21.1096L28.28 17.4301V3.5752ZM10.6 3.5752L3.83995 3.57728C3.70204 3.57728 3.56977 3.63206 3.47226 3.72958C3.37474 3.8271 3.31995 3.95936 3.31995 4.09728V10.4267C3.31995 11.3939 3.85867 12.2821 4.71563 12.7314L10.6 15.8014V3.5752ZM38.16 3.57728L31.4 3.5752V15.8014L37.2843 12.7314C37.7052 12.5113 38.0579 12.1802 38.3039 11.7739C38.55 11.3676 38.68 10.9017 38.68 10.4267V4.09728C38.68 3.95936 38.6252 3.8271 38.5276 3.72958C38.4301 3.63206 38.2979 3.57728 38.16 3.57728Z" fill="#E31C5D"/>
</svg>
