<svg width="40" height="31" viewBox="0 0 40 31" fill="none" xmlns="http://www.w3.org/2000/svg">
<path d="M10.8779 15.5249L10.2385 15.6259L10.4978 16.2191C11.3411 18.1481 12.4745 19.9499 13.8498 21.5847C15.512 23.5605 15.4825 26.5705 13.5477 28.0413C12.1872 29.0756 10.3172 29.0438 9.14183 27.89C3.756 22.6028 0.5 15.6636 0.5 8.07453C0.5 3.95457 4.36559 0.5 9.28571 0.5C14.2058 0.5 18.0714 3.95457 18.0714 8.07453C18.0714 11.739 15.0226 14.8703 10.8779 15.5249Z" stroke="#E31C5D"/>
<path d="M32.3074 15.5249L31.6679 15.6259L31.9272 16.2191C32.7706 18.1481 33.9039 19.9499 35.2792 21.5847C36.9415 23.5605 36.912 26.5705 34.9772 28.0413C33.6167 29.0756 31.7466 29.0438 30.5713 27.89C25.1854 22.6028 21.9294 15.6636 21.9294 8.07453C21.9294 3.95457 25.795 0.5 30.7152 0.5C35.6353 0.5 39.5009 3.95457 39.5009 8.07453C39.5009 11.739 36.452 14.8703 32.3074 15.5249Z" stroke="#E31C5D"/>
</svg>
