<svg width="44" height="45" viewBox="0 0 44 45" fill="none" xmlns="http://www.w3.org/2000/svg">
<path fill-rule="evenodd" clip-rule="evenodd" d="M38.8143 7.63168L20.9835 25.4625L26.7178 39.5931L38.8143 7.63168ZM18.7773 23.2564L4.64016 17.5246L36.6082 5.42551L18.7773 23.2564ZM43.6852 3.57614L28.9266 42.571L28.9179 42.5937C28.7417 43.038 28.4338 43.4178 28.0354 43.6818C27.637 43.9459 27.1673 44.0816 26.6895 44.0708C26.2117 44.06 25.7486 43.9031 25.3626 43.6212C24.9909 43.3498 24.7078 42.975 24.5482 42.5441L17.9881 26.3785C17.9758 26.348 17.9644 26.3171 17.9539 26.2859C17.9229 26.2756 17.8921 26.2642 17.8618 26.2519L1.70188 19.7C1.26923 19.5429 0.892022 19.2615 0.618039 18.8905C0.331512 18.5025 0.171883 18.0355 0.160997 17.5533C0.15011 17.0711 0.288498 16.5973 0.557223 16.1967C0.825949 15.7962 1.21188 15.4885 1.6622 15.3157L1.6688 15.3132L1.66881 15.3132L40.6637 0.554615C40.6648 0.554202 40.6659 0.553791 40.6669 0.55338C41.0881 0.392999 41.5467 0.357657 41.9875 0.451638C42.4295 0.545862 42.8347 0.766044 43.1543 1.08558C43.4738 1.40511 43.694 1.81034 43.7882 2.25231C43.8822 2.69311 43.8469 3.15165 43.6865 3.57282C43.6861 3.57392 43.6857 3.57503 43.6852 3.57614Z" fill="#E31C5D"/>
</svg>
