<svg width="52" height="52" viewBox="0 0 52 52" fill="none" xmlns="http://www.w3.org/2000/svg">
<path fill-rule="evenodd" clip-rule="evenodd" d="M38.6285 8.40721L40.8571 10.6358L28.2285 23.2644L26 21.0358L38.6285 8.40721ZM18.5714 0.978638H48.2857C50.3471 0.978638 52 2.63149 52 4.69292V12.1215C51.0149 12.1215 50.0701 12.5128 49.3736 13.2094C48.677 13.9059 48.2857 14.8507 48.2857 15.8358C48.2857 16.8209 48.677 17.7656 49.3736 18.4622C50.0701 19.1587 51.0149 19.5501 52 19.5501V26.9786C52 29.0401 50.3471 30.6929 48.2857 30.6929H32.3829L34.6055 32.9156C35.2473 33.5574 35.6574 34.4666 35.6574 35.4472C35.6574 36.4278 35.2652 37.3192 34.6055 37.961L22.1255 50.441C21.4837 51.1007 20.5922 51.4929 19.6117 51.4929C18.6311 51.4929 17.7397 51.1007 17.0978 50.4589L1.05213 34.4132C0.392473 33.7535 0.000244141 32.8621 0.000244141 31.8815V19.4015C0.000244141 17.4404 1.60482 15.8358 3.56596 15.8358H16.046C16.9741 15.8358 17.8223 16.1872 18.4547 16.769C18.5309 16.4711 18.5714 16.1585 18.5714 15.8358C18.5714 14.8507 18.1801 13.9059 17.4835 13.2094C16.7869 12.5128 15.8422 12.1215 14.8571 12.1215V4.69292C14.8571 3.70783 15.2484 2.76309 15.945 2.06653C16.6416 1.36996 17.5863 0.978638 18.5714 0.978638ZM21.2695 19.5796C21.276 19.5685 21.2824 19.5574 21.2889 19.5463C21.9405 18.4182 22.2836 17.1385 22.2836 15.8358C22.2836 14.5331 21.9405 13.2533 21.2889 12.1253C20.6372 10.9973 19.6999 10.0608 18.5714 9.41007V4.69292H48.2857V9.41007C47.1571 10.0608 46.2199 10.9973 45.5682 12.1253C44.9165 13.2533 44.5734 14.5331 44.5734 15.8358C44.5734 17.1385 44.9165 18.4182 45.5682 19.5463C46.2199 20.6743 47.1571 21.6108 48.2857 22.2615V26.9786H28.6686L21.2695 19.5796ZM28.7857 8.40721C30.3271 8.40721 31.5714 9.65149 31.5714 11.1929C31.5714 12.7344 30.3271 13.9786 28.7857 13.9786C27.2442 13.9786 26 12.7344 26 11.1929C26 9.65149 27.2442 8.40721 28.7857 8.40721ZM38.0714 17.6929C39.6128 17.6929 40.8571 18.9372 40.8571 20.4786C40.8571 22.0201 39.6128 23.2644 38.0714 23.2644C36.53 23.2644 35.2857 22.0201 35.2857 20.4786C35.2857 18.9372 36.53 17.6929 38.0714 17.6929ZM19.6117 47.945L3.56596 31.8815V19.4015H16.046V19.3837L32.0917 35.4294L19.6117 47.945ZM8.02456 26.5329C9.50153 26.5329 10.6988 25.3356 10.6988 23.8586C10.6988 22.3817 9.50153 21.1843 8.02456 21.1843C6.54759 21.1843 5.35028 22.3817 5.35028 23.8586C5.35028 25.3356 6.54759 26.5329 8.02456 26.5329Z" fill="#E31C5D"/>
</svg>
