<svg width="52" height="45" viewBox="0 0 52 45" fill="none" xmlns="http://www.w3.org/2000/svg">
<path d="M41.438 0.139075C43.8352 0.253475 45.559 0.726676 46.651 1.73028C47.73 2.72348 48.2838 4.16128 48.393 6.06449V11.5167C48.3875 11.981 48.198 12.4242 47.866 12.7488C47.534 13.0735 47.0867 13.2532 46.6224 13.2483C46.3923 13.251 46.1639 13.2084 45.9502 13.1229C45.7365 13.0374 45.5418 12.9106 45.3771 12.7498C45.2125 12.589 45.0811 12.3973 44.9905 12.1857C44.8999 11.9742 44.8519 11.7468 44.8492 11.5167L44.8518 6.16329C44.7946 5.17528 44.558 4.56168 44.22 4.24968C43.8924 3.94808 42.894 3.67768 41.3522 3.59968H7.35461C5.95841 3.65168 5.05101 3.91688 4.61161 4.29388C4.27361 4.58248 4.01881 5.37809 4.01621 6.75349L4.00841 37.3555C4.13841 38.6919 4.43221 39.5838 4.80921 40.0284C5.09521 40.3664 5.98181 40.7043 7.28701 40.8708H41.3886C42.985 40.902 43.9262 40.6628 44.2434 40.343C44.5944 39.9868 44.8492 39.0508 44.8492 37.5193V32.2023C44.8492 31.2481 45.6422 30.4707 46.6224 30.4707C47.6 30.4707 48.393 31.2481 48.393 32.2023V37.5193C48.393 39.8594 47.9146 41.6092 46.794 42.7454C45.6396 43.9154 43.804 44.3834 41.3522 44.3314L7.07641 44.3236C4.74421 44.0532 3.07241 43.4136 2.07661 42.2358C1.17441 41.1698 0.672612 39.6488 0.472412 37.5219V6.75089C0.477612 4.47328 1.02361 2.75988 2.27681 1.68868C3.42601 0.700675 5.08481 0.219675 7.28701 0.136475H41.438V0.139075Z" fill="#E31C5D"/>
<path d="M38.3318 22.4262C38.3318 21.2744 39.3016 20.3384 40.4976 20.3384V20.3358C41.6936 20.3358 42.6634 21.2718 42.6634 22.4262C42.6634 23.578 41.6936 24.514 40.4976 24.514C39.3016 24.514 38.3318 23.5806 38.3318 22.4262Z" fill="#E31C5D"/>
<path fill-rule="evenodd" clip-rule="evenodd" d="M47.1962 15.2358C49.5882 15.2358 51.5278 17.1312 51.5278 19.4686V25.2199C51.5278 27.5573 49.5882 29.4527 47.1962 29.4527H29.8724C27.4804 29.4527 25.5408 27.5547 25.5408 25.2199V19.4686C25.5408 17.1312 27.4804 15.2358 29.8724 15.2358H47.1962ZM29.785 18.7359C29.579 18.7345 29.3808 18.8146 29.2337 18.9588C29.0866 19.103 29.0025 19.2995 28.9998 19.5055V25.2567C29.0025 25.4631 29.087 25.66 29.2346 25.8043C29.3823 25.9485 29.5811 26.0284 29.7876 26.0263H47.1114C47.3178 26.0284 47.5166 25.9485 47.6643 25.8043C47.812 25.66 47.8964 25.4631 47.8992 25.2567V19.5055C47.8964 19.2991 47.812 19.1021 47.6643 18.9579C47.5166 18.8136 47.3178 18.7338 47.1114 18.7359H29.785Z" fill="#E31C5D"/>
</svg>
