<svg xmlns="http://www.w3.org/2000/svg" width="152" height="94" viewBox="0 0 152 94" fill="none">
  <path d="M1.22364 24.9217C1.22364 19.1137 5.51364 15.8797 10.9256 15.0877L18.9116 13.8997C20.7596 13.6357 21.3536 12.7117 21.3536 11.5897C21.3536 9.27971 19.5716 7.36571 15.8756 7.36571C12.0476 7.36571 9.93564 9.80771 9.67164 12.6457L1.88364 10.9957C2.41164 5.91371 7.09764 0.303711 15.8096 0.303711C26.1056 0.303711 29.9336 6.11171 29.9336 12.6457V28.6177C29.9336 30.3337 30.1316 32.6437 30.3296 33.7657H22.2776C22.0796 32.9077 21.9476 31.1257 21.9476 29.8717C20.2976 32.4457 17.1956 34.6897 12.3776 34.6897C5.44764 34.6897 1.22364 30.0037 1.22364 24.9217ZM14.2256 28.1557C17.9216 28.1557 21.3536 26.3737 21.3536 20.6317V19.1797L14.0276 20.3017C11.7836 20.6317 10.0016 21.8857 10.0016 24.3937C10.0016 26.3077 11.3876 28.1557 14.2256 28.1557Z" fill="white"/>
  <path d="M47.5598 46.3057H38.7818V1.29371H47.2958V5.25371C48.7478 2.74571 52.3778 0.567711 57.2618 0.567711C66.7658 0.567711 72.2438 7.82771 72.2438 17.4637C72.2438 27.2977 66.1058 34.5577 56.9318 34.5577C52.4438 34.5577 49.1438 32.7757 47.5598 30.5977V46.3057ZM63.5978 17.5297C63.5978 11.7877 60.0338 8.42171 55.5458 8.42171C51.0578 8.42171 47.4278 11.7877 47.4278 17.5297C47.4278 23.2717 51.0578 26.7037 55.5458 26.7037C60.0338 26.7037 63.5978 23.3377 63.5978 17.5297Z" fill="white"/>
  <path d="M87.9719 46.3057H79.1939V1.29371H87.7079V5.25371C89.1599 2.74571 92.7899 0.567711 97.6739 0.567711C107.178 0.567711 112.656 7.82771 112.656 17.4637C112.656 27.2977 106.518 34.5577 97.3439 34.5577C92.8559 34.5577 89.5559 32.7757 87.9719 30.5977V46.3057ZM104.01 17.5297C104.01 11.7877 100.446 8.42171 95.9579 8.42171C91.4699 8.42171 87.8399 11.7877 87.8399 17.5297C87.8399 23.2717 91.4699 26.7037 95.9579 26.7037C100.446 26.7037 104.01 23.3377 104.01 17.5297Z" fill="white"/>
  <path d="M0.431641 83.7237L7.95564 82.0737C8.15364 84.6477 10.0676 87.0237 13.8956 87.0237C16.7996 87.0237 18.1856 85.5057 18.1856 83.7897C18.1856 82.3377 17.1956 81.1497 14.6876 80.6217L10.3976 79.6317C4.12764 78.2457 1.28964 74.4837 1.28964 69.9297C1.28964 64.1217 6.43764 59.3037 13.4336 59.3037C22.6736 59.3037 25.7756 65.1777 26.1716 68.6757L18.8456 70.3257C18.5816 68.4117 17.1956 65.9697 13.4996 65.9697C11.1896 65.9697 9.34164 67.3557 9.34164 69.2037C9.34164 70.7877 10.5296 71.7777 12.3116 72.1077L16.9316 73.0977C23.3336 74.4177 26.5676 78.3117 26.5676 83.0637C26.5676 88.3437 22.4756 93.7557 13.9616 93.7557C4.19364 93.7557 0.827641 87.4197 0.431641 83.7237Z" fill="white"/>
  <path d="M44.4495 50.5917V60.2937H50.9835V68.0817H44.4495V81.6777C44.4495 84.5157 45.7695 85.4397 48.2775 85.4397C49.3335 85.4397 50.5215 85.3077 50.9835 85.1757V92.4357C50.1915 92.7657 48.6075 93.2277 46.0335 93.2277C39.6975 93.2277 35.7375 89.4657 35.7375 83.1957V68.0817H29.8635V60.2937H31.5135C34.9455 60.2937 36.5295 58.0497 36.5295 55.1457V50.5917H44.4495Z" fill="white"/>
  <path d="M72.7037 85.7697C76.9937 85.7697 80.9537 82.6677 80.9537 76.5297C80.9537 70.3917 76.9937 67.2897 72.7037 67.2897C68.4137 67.2897 64.4537 70.3917 64.4537 76.5297C64.4537 82.6017 68.4137 85.7697 72.7037 85.7697ZM72.7037 59.3037C82.4057 59.3037 89.7317 66.4977 89.7317 76.5297C89.7317 86.4957 82.4057 93.7557 72.7037 93.7557C63.0017 93.7557 55.6757 86.4957 55.6757 76.5297C55.6757 66.4977 63.0017 59.3037 72.7037 59.3037Z" fill="white"/>
  <path d="M116.461 60.1617V69.0057C115.471 68.8077 114.613 68.7417 113.821 68.7417C109.333 68.7417 105.439 70.9197 105.439 77.9157V92.7657H96.6607V60.2937H105.175V65.1117C107.155 60.8217 111.643 60.0297 114.415 60.0297C115.141 60.0297 115.801 60.0957 116.461 60.1617Z" fill="white"/>
  <path d="M128.715 72.8337H143.235C143.103 69.5997 140.991 66.4317 135.975 66.4317C131.421 66.4317 128.913 69.8637 128.715 72.8337ZM144.093 81.2817L151.419 83.4597C149.769 89.0697 144.621 93.7557 136.635 93.7557C127.725 93.7557 119.871 87.3537 119.871 76.3977C119.871 66.0357 127.527 59.3037 135.843 59.3037C145.875 59.3037 151.881 65.7057 151.881 76.1337C151.881 77.3877 151.749 78.7077 151.749 78.8397H128.517C128.715 83.1297 132.345 86.2317 136.701 86.2317C140.793 86.2317 143.037 84.1857 144.093 81.2817Z" fill="white"/>
</svg>