<svg width="115" height="40" viewBox="0 0 115 40" fill="none" xmlns="http://www.w3.org/2000/svg">
<path d="M33.0445 23.1985C33.0445 32.1693 25.7722 39.4416 16.8015 39.4416C7.83075 39.4416 0.558517 32.1693 0.558517 23.1985C0.558517 14.2277 7.83075 6.95549 16.8015 6.95549C25.7722 6.95549 33.0445 14.2277 33.0445 23.1985Z" fill="#FFB317" stroke="#E89C00" stroke-width="1.11703"/>
<path fill-rule="evenodd" clip-rule="evenodd" d="M33.9316 4.37045C34.3655 4.49296 34.3655 5.10793 33.9316 5.23044L31.9516 5.78956C31.8021 5.83178 31.6853 5.94863 31.6431 6.09814L31.0839 8.07814C30.9614 8.51199 30.3465 8.51199 30.2239 8.07813L29.6648 6.09814C29.6226 5.94863 29.5058 5.83178 29.3563 5.78956L27.3763 5.23044C26.9424 5.10793 26.9424 4.49296 27.3763 4.37045L29.3563 3.81132C29.5058 3.76911 29.6226 3.65226 29.6648 3.50275L30.2239 1.52275C30.3465 1.0889 30.9614 1.0889 31.0839 1.52275L31.6431 3.50275C31.6853 3.65226 31.8021 3.76911 31.9516 3.81132L33.9316 4.37045Z" fill="#FFB317"/>
<path fill-rule="evenodd" clip-rule="evenodd" d="M26.3778 21.9911C27.5962 22.3351 27.5962 24.0621 26.3778 24.4061L20.5277 26.0581C20.1078 26.1766 19.7797 26.5048 19.6611 26.9246L18.0091 32.7748C17.6651 33.9931 15.9381 33.9931 15.5941 32.7748L13.9421 26.9246C13.8236 26.5048 13.4954 26.1766 13.0756 26.0581L7.22543 24.4061C6.00709 24.0621 6.00709 22.3351 7.22543 21.9911L13.0756 20.3391C13.4954 20.2205 13.8236 19.8924 13.9421 19.4725L15.5941 13.6224C15.9381 12.404 17.6651 12.404 18.0091 13.6224L19.6611 19.4725C19.7797 19.8924 20.1078 20.2205 20.5277 20.3391L26.3778 21.9911Z" fill="white"/>
<path d="M50.2334 9.3865L47.9512 10.0859C47.8224 9.3681 47.2334 8.2454 45.577 8.2454C44.3438 8.2454 43.534 9.03681 43.534 9.90184C43.534 10.6196 43.9942 11.1902 44.9512 11.3742L46.7733 11.7239C49.1475 12.184 50.4175 13.7301 50.4175 15.5706C50.4175 17.5767 48.7426 19.6012 45.7058 19.6012C42.2457 19.6012 40.7181 17.3742 40.5156 15.5153L42.8715 14.8896C42.9819 16.1779 43.8837 17.3374 45.7242 17.3374C47.0862 17.3374 47.8408 16.6564 47.8408 15.7362C47.8408 14.9816 47.2702 14.3926 46.258 14.1902L44.4359 13.8221C42.3561 13.3988 41.0126 12.0552 41.0126 10.0859C41.0126 7.76687 43.0923 6 45.5586 6C48.7242 6 49.9389 7.91411 50.2334 9.3865Z" fill="black"/>
<path d="M51.7898 16.8589C51.7898 15.2393 52.9861 14.3374 54.4953 14.1166L56.7223 13.7853C57.2376 13.7117 57.4033 13.454 57.4033 13.1411C57.4033 12.4969 56.9063 11.9632 55.8757 11.9632C54.8082 11.9632 54.2192 12.6442 54.1456 13.4356L51.9738 12.9755C52.1211 11.5583 53.4278 9.99387 55.8573 9.99387C58.7284 9.99387 59.7959 11.6135 59.7959 13.4356V17.8896C59.7959 18.3681 59.8511 19.0123 59.9063 19.3252H57.6609C57.6057 19.0859 57.5689 18.589 57.5689 18.2393C57.1088 18.9571 56.2438 19.5828 54.9002 19.5828C52.9677 19.5828 51.7898 18.2761 51.7898 16.8589ZM55.4155 17.7607C56.4462 17.7607 57.4033 17.2638 57.4033 15.6626V15.2577L55.3603 15.5706C54.7346 15.6626 54.2376 16.0123 54.2376 16.7117C54.2376 17.2454 54.6241 17.7607 55.4155 17.7607Z" fill="black"/>
<path d="M64.7112 14.1166V19.3252H62.2633V10.2699H64.6376V11.3926C65.1897 10.454 66.2756 10.0307 67.2511 10.0307C69.4965 10.0307 70.5271 11.6319 70.5271 13.6196V19.3252H68.0793V14.0429C68.0793 13.0307 67.5823 12.2393 66.4044 12.2393C65.3369 12.2393 64.7112 13.0675 64.7112 14.1166Z" fill="black"/>
<path d="M81.6434 6V17.6871C81.6434 18.2945 81.6802 18.9571 81.717 19.3252H79.3796C79.3428 19.1411 79.2876 18.6994 79.2876 18.2761C78.8827 18.9939 77.9624 19.546 76.7477 19.546C74.171 19.546 72.3305 17.5215 72.3305 14.7791C72.3305 12.1288 74.1158 10.0491 76.6741 10.0491C78.2385 10.0491 78.9747 10.6933 79.2324 11.1718V6H81.6434ZM74.7968 14.7791C74.7968 16.3988 75.7538 17.3558 77.0422 17.3558C78.2937 17.3558 79.2692 16.3988 79.2692 14.7607C79.2692 13.1411 78.2937 12.2393 77.0422 12.2393C75.7906 12.2393 74.7968 13.1595 74.7968 14.7791Z" fill="black"/>
<path d="M88.3664 17.3742C89.5627 17.3742 90.667 16.5092 90.667 14.7975C90.667 13.0859 89.5627 12.2209 88.3664 12.2209C87.1701 12.2209 86.0658 13.0859 86.0658 14.7975C86.0658 16.4908 87.1701 17.3742 88.3664 17.3742ZM88.3664 9.99387C91.0719 9.99387 93.1148 12 93.1148 14.7975C93.1148 17.5767 91.0719 19.6012 88.3664 19.6012C85.6609 19.6012 83.6179 17.5767 83.6179 14.7975C83.6179 12 85.6609 9.99387 88.3664 9.99387Z" fill="black"/>
<path d="M99.1146 17.3742C100.311 17.3742 101.415 16.5092 101.415 14.7975C101.415 13.0859 100.311 12.2209 99.1146 12.2209C97.9182 12.2209 96.8139 13.0859 96.8139 14.7975C96.8139 16.4908 97.9182 17.3742 99.1146 17.3742ZM99.1146 9.99387C101.82 9.99387 103.863 12 103.863 14.7975C103.863 17.5767 101.82 19.6012 99.1146 19.6012C96.409 19.6012 94.3661 17.5767 94.3661 14.7975C94.3661 12 96.409 9.99387 99.1146 9.99387Z" fill="black"/>
<path d="M114.574 10.2699L110.949 14.0798L114.648 19.3252H111.648L109.255 15.865L108.243 16.9325V19.3252H105.795V6H108.243V13.638L111.372 10.2699H114.574Z" fill="black"/>
<path d="M55.0134 34.4295H52.5103V25.2822L48.7557 34.4295H46.6391L42.8845 25.3558V34.4295H40.4551V21.3804H43.8048L47.725 30.8037L51.5532 21.3804H55.0134V34.4295Z" fill="black"/>
<path d="M61.8268 32.4785C63.0231 32.4785 64.1274 31.6135 64.1274 29.9018C64.1274 28.1902 63.0231 27.3252 61.8268 27.3252C60.6305 27.3252 59.5262 28.1902 59.5262 29.9018C59.5262 31.5951 60.6305 32.4785 61.8268 32.4785ZM61.8268 25.0982C64.5323 25.0982 66.5752 27.1043 66.5752 29.9018C66.5752 32.681 64.5323 34.7055 61.8268 34.7055C59.1213 34.7055 57.0783 32.681 57.0783 29.9018C57.0783 27.1043 59.1213 25.0982 61.8268 25.0982Z" fill="black"/>
<path d="M70.9553 29.2209V34.4295H68.5075V25.3742H70.8817V26.4969C71.4338 25.5583 72.5197 25.135 73.4952 25.135C75.7406 25.135 76.7713 26.7362 76.7713 28.7239V34.4295H74.3234V29.1472C74.3234 28.135 73.8265 27.3436 72.6486 27.3436C71.5811 27.3436 70.9553 28.1718 70.9553 29.2209Z" fill="black"/>
<path d="M81.0409 28.8712H85.09C85.0532 27.9693 84.4642 27.0859 83.0655 27.0859C81.7955 27.0859 81.0961 28.0429 81.0409 28.8712ZM85.3293 31.227L87.3722 31.8344C86.9121 33.3988 85.4765 34.7055 83.2495 34.7055C80.7649 34.7055 78.5747 32.9202 78.5747 29.865C78.5747 26.9755 80.7096 25.0982 83.0287 25.0982C85.8262 25.0982 87.501 26.8834 87.501 29.7914C87.501 30.1411 87.4642 30.5092 87.4642 30.546H80.9857C81.0409 31.7423 82.0532 32.6074 83.2679 32.6074C84.409 32.6074 85.0348 32.0368 85.3293 31.227Z" fill="black"/>
<path d="M92.4317 38H89.8366L91.9716 33.2883L88.1249 25.3742H90.8673L93.2783 30.6749L95.5053 25.3742H98.1188L92.4317 38Z" fill="black"/>
</svg>
