<svg xmlns="http://www.w3.org/2000/svg" width="152" height="109" viewBox="0 0 152 109" fill="none">
  <path d="M12.1008 61.3055H3.32278V16.2934H11.8368V20.2534C13.2888 17.7454 16.9188 15.5674 21.8028 15.5674C31.3068 15.5674 36.7848 22.8274 36.7848 32.4634C36.7848 42.2974 30.6468 49.5574 21.4728 49.5574C16.9848 49.5574 13.6848 47.7755 12.1008 45.5975V61.3055ZM28.1388 32.5294C28.1388 26.7874 24.5748 23.4214 20.0868 23.4214C15.5988 23.4214 11.9688 26.7874 11.9688 32.5294C11.9688 38.2714 15.5988 41.7034 20.0868 41.7034C24.5748 41.7034 28.1388 38.3374 28.1388 32.5294Z" fill="white"/>
  <path d="M52.5129 48.7654H43.7349V0.981445H52.5129V48.7654Z" fill="white"/>
  <path d="M59.7373 39.9214C59.7373 34.1134 64.0273 30.8794 69.4393 30.0874L77.4253 28.8994C79.2733 28.6354 79.8673 27.7114 79.8673 26.5894C79.8673 24.2794 78.0853 22.3654 74.3893 22.3654C70.5613 22.3654 68.4493 24.8074 68.1853 27.6454L60.3973 25.9954C60.9253 20.9134 65.6113 15.3034 74.3233 15.3034C84.6193 15.3034 88.4473 21.1114 88.4473 27.6454V43.6174C88.4473 45.3334 88.6453 47.6434 88.8433 48.7654H80.7913C80.5933 47.9074 80.4613 46.1254 80.4613 44.8714C78.8113 47.4454 75.7093 49.6894 70.8913 49.6894C63.9613 49.6894 59.7373 45.0034 59.7373 39.9214ZM72.7393 43.1554C76.4353 43.1554 79.8673 41.3734 79.8673 35.6314V34.1794L72.5413 35.3014C70.2973 35.6314 68.5153 36.8854 68.5153 39.3934C68.5153 41.3074 69.9013 43.1554 72.7393 43.1554Z" fill="white"/>
  <path d="M107.678 61.5695H98.3715L106.028 44.6734L92.2335 16.2934H102.068L110.714 35.3014L118.7 16.2934H128.072L107.678 61.5695Z" fill="white"/>
  <path d="M0.550781 98.7234L8.07478 97.0734C8.27278 99.6474 10.1868 102.023 14.0148 102.023C16.9188 102.023 18.3048 100.505 18.3048 98.7895C18.3048 97.3374 17.3148 96.1495 14.8068 95.6215L10.5168 94.6314C4.24678 93.2454 1.40878 89.4835 1.40878 84.9295C1.40878 79.1215 6.55678 74.3034 13.5528 74.3034C22.7928 74.3034 25.8948 80.1774 26.2908 83.6754L18.9648 85.3254C18.7008 83.4114 17.3148 80.9695 13.6188 80.9695C11.3088 80.9695 9.46078 82.3554 9.46078 84.2034C9.46078 85.7874 10.6488 86.7774 12.4308 87.1074L17.0508 88.0975C23.4528 89.4174 26.6868 93.3114 26.6868 98.0634C26.6868 103.343 22.5948 108.755 14.0808 108.755C4.31278 108.755 0.946781 102.419 0.550781 98.7234Z" fill="white"/>
  <path d="M44.5687 65.5914V75.2934H51.1027V83.0815H44.5687V96.6775C44.5687 99.5154 45.8887 100.439 48.3967 100.439C49.4527 100.439 50.6407 100.307 51.1027 100.175V107.435C50.3107 107.765 48.7267 108.227 46.1527 108.227C39.8167 108.227 35.8567 104.465 35.8567 98.1954V83.0815H29.9827V75.2934H31.6327C35.0647 75.2934 36.6487 73.0494 36.6487 70.1454V65.5914H44.5687Z" fill="white"/>
  <path d="M72.8228 100.769C77.1128 100.769 81.0728 97.6674 81.0728 91.5294C81.0728 85.3914 77.1128 82.2895 72.8228 82.2895C68.5328 82.2895 64.5728 85.3914 64.5728 91.5294C64.5728 97.6014 68.5328 100.769 72.8228 100.769ZM72.8228 74.3034C82.5248 74.3034 89.8508 81.4975 89.8508 91.5294C89.8508 101.495 82.5248 108.755 72.8228 108.755C63.1208 108.755 55.7948 101.495 55.7948 91.5294C55.7948 81.4975 63.1208 74.3034 72.8228 74.3034Z" fill="white"/>
  <path d="M116.58 75.1614V84.0054C115.59 83.8074 114.732 83.7414 113.94 83.7414C109.452 83.7414 105.558 85.9194 105.558 92.9155V107.765H96.7798V75.2934H105.294V80.1115C107.274 75.8214 111.762 75.0294 114.534 75.0294C115.26 75.0294 115.92 75.0954 116.58 75.1614Z" fill="white"/>
  <path d="M128.834 87.8335H143.354C143.222 84.5994 141.11 81.4314 136.094 81.4314C131.54 81.4314 129.032 84.8634 128.834 87.8335ZM144.212 96.2814L151.538 98.4594C149.888 104.069 144.74 108.755 136.754 108.755C127.844 108.755 119.99 102.353 119.99 91.3974C119.99 81.0354 127.646 74.3034 135.962 74.3034C145.994 74.3034 152 80.7054 152 91.1334C152 92.3874 151.868 93.7074 151.868 93.8394H128.636C128.834 98.1294 132.464 101.231 136.82 101.231C140.912 101.231 143.156 99.1854 144.212 96.2814Z" fill="white"/>
</svg>