<svg xmlns="http://www.w3.org/2000/svg" width="240" height="117" viewBox="0 0 240 117" fill="none">
  <path d="M0 89.95V65.278L46.774 2.57H75.9007V69.7327H94.2333V89.95H75.9007V113.765H52.5993V89.95H0ZM52.5993 69.7327V27.242L20.9027 69.7327H52.5993Z" fill="white"/>
  <path d="M107.714 99.3733C107.714 90.8067 114.738 83.782 123.305 83.782C132.043 83.782 139.068 90.8067 139.068 99.3733C139.068 107.94 132.043 114.965 123.305 114.965C114.738 114.965 107.714 107.94 107.714 99.3733Z" fill="white"/>
  <path d="M197.945 48.1447C208.396 47.9733 214.393 41.4627 214.393 33.5813C214.393 26.214 208.396 19.532 197.945 19.532C187.665 19.532 181.668 26.214 181.668 33.5813C181.668 41.4627 187.665 47.9733 197.945 48.1447ZM197.945 96.8033C210.281 96.8033 216.792 89.2647 216.792 81.3833C216.792 73.3307 210.452 65.6207 197.945 65.6207C185.438 65.6207 179.27 73.3307 179.27 81.3833C179.27 89.2647 185.78 96.8033 197.945 96.8033ZM197.945 116.335C172.588 116.335 155.968 102.971 155.968 83.782C155.968 71.7887 163.85 61.166 175.672 56.7113C164.535 52.5993 158.196 41.8053 158.196 31.868C158.196 13.1927 174.815 0 197.945 0C221.075 0 237.694 13.1927 237.694 31.868C237.694 41.634 231.526 52.5993 220.39 56.7113C232.04 60.9947 239.922 71.7887 239.922 83.782C239.922 102.971 223.302 116.335 197.945 116.335Z" fill="white"/>
</svg>