<svg width="30" height="32" viewBox="0 0 30 32" fill="none" xmlns="http://www.w3.org/2000/svg">
<path d="M0.119141 2.55425V29.7481C0.119324 29.8071 0.137052 29.8647 0.170102 29.9137C0.203152 29.9628 0.250052 30.001 0.304921 30.0237C0.359791 30.0464 0.420187 30.0525 0.478537 30.0413C0.536886 30.03 0.590591 30.0019 0.632918 29.9605L14.8981 16.1519L0.632918 2.34182C0.590591 2.30039 0.536886 2.2723 0.478537 2.26105C0.420187 2.2498 0.359791 2.2559 0.304921 2.27859C0.250052 2.30128 0.203152 2.33954 0.170102 2.38858C0.137052 2.43762 0.119324 2.49525 0.119141 2.55425ZM20.8794 10.4778L2.99267 0.696347L2.98151 0.690119C2.67339 0.52405 2.3806 0.937839 2.63295 1.17864L16.6541 14.4863L20.8794 10.4778ZM2.63435 31.1251C2.3806 31.3659 2.67339 31.7797 2.98291 31.6136L2.99406 31.6074L20.8794 21.8259L16.6541 17.816L2.63435 31.1251ZM28.1001 14.422L23.1053 11.6915L18.4088 16.1519L23.1053 20.6101L28.1001 17.8817C29.4588 17.1365 29.4588 15.1672 28.1001 14.422Z" fill="#222222"/>
</svg>
