<svg width="30" height="28" viewBox="0 0 30 28" fill="none" xmlns="http://www.w3.org/2000/svg">
<path d="M7.5425 27.4191C6.84291 27.778 6.04908 27.1491 6.19044 26.3462L7.69474 17.7735L1.30964 11.6911C0.71336 11.122 1.02328 10.0816 1.82255 9.96928L10.6997 8.70785L14.658 0.865577C15.015 0.15874 15.981 0.15874 16.3381 0.865577L20.2964 8.70785L29.1735 9.96928C29.9728 10.0816 30.2827 11.122 29.6846 11.6911L23.3013 17.7735L24.8056 26.3462C24.947 27.1491 24.1532 27.778 23.4536 27.4191L15.4953 23.3303L7.5425 27.4191Z" fill="white"/>
<mask id="mask0_323_2803" style="mask-type:alpha" maskUnits="userSpaceOnUse" x="0" y="0" width="30" height="28">
<path d="M7.5381 27.4191C6.83851 27.778 6.04468 27.1491 6.18605 26.3462L7.69034 17.7735L1.30525 11.6911C0.708965 11.122 1.01889 10.0816 1.81816 9.96928L10.6953 8.70785L14.6536 0.865577C15.0106 0.15874 15.9767 0.15874 16.3337 0.865577L20.292 8.70785L29.1691 9.96928C29.9684 10.0816 30.2783 11.122 29.6802 11.6911L23.2969 17.7735L24.8012 26.3462C24.9426 27.1491 24.1488 27.778 23.4492 27.4191L15.4909 23.3303L7.5381 27.4191Z" fill="white"/>
</mask>
<g mask="url(#mask0_323_2803)">
<rect x="14.9985" y="-0.163574" width="16" height="33" fill="#AFAFAF"/>
</g>
</svg>
