<svg width="40" height="41" viewBox="0 0 40 41" fill="none" xmlns="http://www.w3.org/2000/svg">
<path d="M17.5397 26.3244V26.9175L18.0332 26.5886L27.1675 20.5L27.5638 20.2358L27.1675 19.9717L18.0332 13.8831L17.5397 13.5541V14.1473V26.3244ZM18.0767 11.239L18.1553 11.2914L29.2925 18.7171C29.5425 18.8838 29.7474 19.1096 29.8892 19.3746C30.031 19.6395 30.1052 19.9354 30.1052 20.2358C30.1052 20.5363 30.031 20.8322 29.8892 21.0971C29.7474 21.362 29.5425 21.5879 29.2925 21.7546L18.1553 29.1803C18.1553 29.1803 18.1553 29.1803 18.1553 29.1803C17.8804 29.3635 17.561 29.4687 17.231 29.4847C16.901 29.5006 16.5728 29.4267 16.2816 29.2708C15.9903 29.1149 15.7467 28.8829 15.577 28.5995C15.4072 28.3161 15.3175 27.9919 15.3175 27.6615V12.8073C15.3175 12.8073 15.3175 12.8073 15.3175 12.8073C15.3175 12.4769 15.4072 12.1527 15.577 11.8693C15.7467 11.5859 15.9903 11.3539 16.2816 11.198C16.5728 11.0421 16.901 10.9682 17.231 10.9842C17.53 10.9986 17.8203 11.0863 18.0767 11.239ZM20 0.5533C25.2201 0.5533 30.2265 2.62699 33.9177 6.31818C37.6088 10.0094 39.6825 15.0157 39.6825 20.2358C39.6825 25.456 37.6089 30.4623 33.9177 34.1535C30.2265 37.8447 25.2201 39.9184 20 39.9184C14.7799 39.9184 9.77353 37.8447 6.08234 34.1535C2.39115 30.4623 0.31746 25.456 0.31746 20.2358C0.31746 15.0157 2.39115 10.0094 6.08234 6.31818C9.77353 2.62699 14.7799 0.5533 20 0.5533ZM20 37.6962C24.6308 37.6962 29.0719 35.8566 32.3463 32.5821C35.6208 29.3077 37.4603 24.8666 37.4603 20.2358C37.4603 15.6051 35.6208 11.164 32.3463 7.88953C29.0719 4.61509 24.6308 2.77552 20 2.77552C15.3692 2.77552 10.9281 4.61509 7.65369 7.88953C4.37925 11.164 2.53968 15.6051 2.53968 20.2358C2.53968 24.8666 4.37925 29.3077 7.65369 32.5821C10.9281 35.8566 15.3692 37.6962 20 37.6962Z" fill="#666666" stroke="#FCF7F7" stroke-width="0.634921"/>
</svg>
