<svg width="52" height="53" viewBox="0 0 52 53" fill="none" xmlns="http://www.w3.org/2000/svg">
<path fill-rule="evenodd" clip-rule="evenodd" d="M16.249 6.73665C16.249 3.0962 24.2435 0.23584 34.1229 0.23584H34.1261C44.0055 0.23584 52 3.0962 52 6.73665V39.4487C51.9253 40.3426 51.4865 41.1325 50.8073 41.7793C49.9787 44.7846 48.1871 47.4349 45.7075 49.3238C43.2278 51.2126 40.1971 52.2356 37.0802 52.2358C31.8935 52.2358 27.3568 49.4632 25.0884 45.2215C22.8038 45.5628 20.4705 45.7415 18.0916 45.7415H17.8739C7.9945 45.7415 0 42.7837 0 39.2407V19.7383C0 16.2928 6.49959 13.5625 16.249 13.2375V6.73665ZM32.498 19.7383C32.498 17.9506 25.9984 16.4879 17.8739 16.4879C9.74939 16.4879 3.2498 17.9506 3.2498 19.7383C3.2498 21.526 9.74939 22.9887 17.8739 22.9887C25.9984 22.9887 32.498 21.526 32.498 19.7383ZM3.2498 39.2407C4.06225 40.1833 9.06693 42.4911 17.8739 42.4911H17.8414L18.5271 42.4976C19.9428 42.4976 21.3448 42.4295 22.625 42.3672C22.8759 42.355 23.1221 42.343 23.3628 42.3319C23.0346 41.2755 22.8233 40.1671 22.9631 38.9612C21.2927 39.1399 19.5963 39.2342 17.9454 39.2375C12.9146 39.4772 7.89382 38.5899 3.2498 36.6404V39.2407ZM17.9194 35.9903C19.7003 35.9903 21.4584 35.883 22.9761 35.6978L22.9891 35.623C23.1548 34.4496 23.4603 33.3185 24.1005 32.3238C22.0569 32.5973 19.9975 32.7363 17.9356 32.7399C12.8992 32.9351 7.88278 32.0023 3.25305 30.0096V32.7399C4.0655 33.6825 9.07018 35.9903 17.8739 35.9903H17.9194ZM3.2498 26.2391C4.06225 27.1817 9.06693 29.4895 17.8739 29.4895H18.1176C20.9774 29.4895 23.769 29.1937 26.2129 28.6574C27.8891 26.7039 30.0617 25.2395 32.5012 24.4189L32.7222 23.2292C28.0617 25.2521 23.01 26.2136 17.9324 26.0441C12.8959 26.2393 7.87953 25.3064 3.2498 23.3137V26.2391ZM29.2442 45.7455C31.3224 47.8242 34.1411 48.9919 37.0802 48.9919C40.0193 48.9919 42.838 47.8242 44.9162 45.7455C46.9944 43.6669 48.162 40.8477 48.162 37.9081C48.162 34.9684 46.9944 32.1492 44.9162 30.0706C42.838 27.9919 40.0193 26.8242 37.0802 26.8242C34.1411 26.8242 31.3224 27.9919 29.2442 30.0706C27.1659 32.1492 25.9984 34.9684 25.9984 37.9081C25.9984 40.8477 27.1659 43.6669 29.2442 45.7455ZM46.7418 27.4937C47.4958 27.2142 48.1782 26.7819 48.747 26.2391L48.8704 23.4502C47.2245 24.303 45.488 24.9681 43.6935 25.433C44.792 25.9986 45.8059 26.7006 46.7418 27.4937ZM35.7478 22.9887C43.5148 22.7937 47.967 20.7459 48.747 19.7383L48.9549 16.9592C44.8076 18.7983 40.3202 19.7451 35.7835 19.7383H35.7478V22.9887ZM34.1229 16.4879C42.9298 16.4879 47.9345 14.3101 48.747 13.2375H48.7502L48.9712 10.2276C44.3107 12.2505 39.2589 13.2119 34.1814 13.0424C29.1449 13.2376 24.1285 12.3048 19.4988 10.3121V13.2375H19.827C24.5379 13.2228 29.1837 14.3374 33.3754 16.4879H34.1229ZM19.4988 6.73665C19.4988 8.52438 25.9984 9.98706 34.1229 9.98706C42.2474 9.98706 48.747 8.52438 48.747 6.73665C48.747 4.94893 42.2474 3.48625 34.1229 3.48625C25.9984 3.48625 19.4988 4.94893 19.4988 6.73665ZM35.5345 36.6359H33.8012L37.2678 31.4359H39.0012V44.4359H35.5345V36.6359Z" fill="#E31C5D"/>
</svg>
