<svg width="24" height="24" viewBox="0 0 24 24" fill="none" xmlns="http://www.w3.org/2000/svg">
<path d="M17.743 11.123C17.639 11.0735 17.534 11.0262 17.428 10.981C17.243 7.567 15.378 5.613 12.246 5.593H12.204C10.33 5.593 8.77303 6.393 7.81403 7.848L9.53603 9.029C10.252 7.942 11.376 7.71 12.205 7.71H12.233C13.264 7.717 14.043 8.017 14.546 8.602C14.913 9.027 15.158 9.616 15.279 10.358C14.3009 10.1992 13.3079 10.1512 12.319 10.215C9.34203 10.387 7.42703 12.123 7.55603 14.536C7.62103 15.76 8.23102 16.813 9.27303 17.501C10.153 18.083 11.288 18.367 12.468 18.303C14.025 18.217 15.246 17.623 16.098 16.537C16.746 15.712 17.155 14.643 17.336 13.296C18.078 13.744 18.628 14.333 18.932 15.041C19.449 16.246 19.479 18.225 17.864 19.838C16.449 21.252 14.748 21.863 12.178 21.882C9.32703 21.862 7.17003 20.947 5.76803 19.165C4.45503 17.495 3.77703 15.085 3.75203 12C3.77703 8.915 4.45503 6.504 5.76803 4.835C7.17003 3.053 9.32603 2.139 12.178 2.118C15.049 2.138 17.243 3.058 18.699 4.848C19.413 5.727 19.951 6.831 20.306 8.118L22.324 7.58C21.894 5.995 21.217 4.63 20.297 3.497C18.43 1.2 15.7 0.024 12.185 0H12.171C8.66003 0.024 5.96303 1.205 4.15003 3.51C2.53603 5.56 1.70403 8.415 1.67603 11.992V12.008C1.70403 15.586 2.53603 18.439 4.14903 20.49C5.96203 22.795 8.66103 23.976 12.171 24H12.185C15.305 23.978 17.504 23.161 19.315 21.351C21.686 18.983 21.615 16.015 20.833 14.193C20.273 12.886 19.204 11.825 17.743 11.123ZM12.356 16.188C11.051 16.262 9.69603 15.676 9.62803 14.422C9.57803 13.492 10.29 12.453 12.436 12.33C12.682 12.315 12.923 12.309 13.16 12.309C13.94 12.309 14.668 12.384 15.331 12.529C15.084 15.617 13.634 16.118 12.356 16.188Z" fill="#999999"/>
</svg>
