<svg width="90" height="24" viewBox="0 0 90 24" fill="none" xmlns="http://www.w3.org/2000/svg">
<path d="M24.8259 12C24.8259 5.37258 19.4533 1.71974e-07 12.8259 4.61667e-07C6.19851 7.51361e-07 0.825927 5.37258 0.825927 12C0.825927 18.6274 6.19851 24 12.8259 24C19.4533 24 24.8259 18.6274 24.8259 12Z" fill="#5F259F"/>
<path d="M61.5151 18.8581V14.5003C61.5151 13.4277 61.1129 12.8914 60.1073 12.8914C59.705 12.8914 59.2357 12.9584 58.9675 13.0254V19.3944C58.9675 19.5955 58.7664 19.7966 58.5653 19.7966H57.0233C56.8222 19.7966 56.6211 19.5955 56.6211 19.3944V11.9528C56.6211 11.6846 56.8222 11.4835 57.0233 11.4164C58.029 11.0812 59.0346 10.8801 60.1073 10.8801C62.5207 10.8801 63.8616 12.1539 63.8616 14.5003V19.4614C63.8616 19.6625 63.6605 19.8637 63.4593 19.8637H62.5207C61.9174 19.8637 61.5151 19.3944 61.5151 18.8581ZM67.5489 16.2434L67.4818 16.8468C67.4818 17.6513 68.0182 18.1206 68.8897 18.1206C69.5601 18.1206 70.1635 17.9195 70.8339 17.5843C70.9009 17.5843 70.968 17.5172 71.035 17.5172C71.1691 17.5172 71.2361 17.5843 71.3032 17.6513C71.3702 17.7183 71.5043 17.9195 71.5043 17.9195C71.6384 18.1206 71.7725 18.3888 71.7725 18.5899C71.7725 18.9251 71.5714 19.2603 71.3032 19.3944C70.5657 19.7966 69.6942 19.9978 68.7556 19.9978C67.6829 19.9978 66.8114 19.7296 66.141 19.1933C65.4706 18.5899 65.0683 17.7854 65.0683 16.7798V14.1651C65.0683 12.0869 66.4092 10.8131 68.6886 10.8131C70.9009 10.8131 72.1747 12.0198 72.1747 14.1651V15.7741C72.1747 15.9753 71.9736 16.1764 71.7725 16.1764H67.5489V16.2434ZM67.4818 14.7685H70.0294V14.0981C70.0294 13.2936 69.5601 12.7573 68.7556 12.7573C67.9511 12.7573 67.4818 13.2266 67.4818 14.0981V14.7685ZM84.5774 16.2434L84.5104 16.8468C84.5104 17.6513 85.0467 18.1206 85.9182 18.1206C86.5887 18.1206 87.192 17.9195 87.8624 17.5843C87.9295 17.5843 87.9965 17.5172 88.0636 17.5172C88.1977 17.5172 88.2647 17.5843 88.3317 17.6513C88.3988 17.7183 88.5329 17.9195 88.5329 17.9195C88.6669 18.1206 88.801 18.3888 88.801 18.5899C88.801 18.9251 88.5999 19.2603 88.3317 19.3944C87.5943 19.7966 86.7227 19.9978 85.7842 19.9978C84.7115 19.9978 83.84 19.7296 83.1695 19.1933C82.4991 18.5899 82.0969 17.7854 82.0969 16.7798V14.1651C82.0969 12.0869 83.4377 10.8131 85.7171 10.8131C87.9295 10.8131 89.2033 12.0198 89.2033 14.1651V15.7741C89.2033 15.9753 89.0021 16.1764 88.801 16.1764H84.5774V16.2434ZM84.5104 14.7685H87.0579V14.0981C87.0579 13.2936 86.5886 12.7573 85.7842 12.7573C84.9797 12.7573 84.5104 13.2266 84.5104 14.0981V14.7685ZM45.09 19.8637H46.0285C46.2297 19.8637 46.4308 19.6625 46.4308 19.4614V14.5003C46.4308 12.2209 45.224 10.8801 43.2128 10.8801C42.6094 10.8801 41.939 11.0142 41.5368 11.1483V8.66773C41.5368 8.1314 41.0675 7.66211 40.5311 7.66211H39.5925C39.3914 7.66211 39.1903 7.86323 39.1903 8.06436V19.4614C39.1903 19.6625 39.3914 19.8637 39.5925 19.8637H41.1345C41.3356 19.8637 41.5368 19.6625 41.5368 19.4614V13.1595C41.872 13.0254 42.3413 12.9584 42.6765 12.9584C43.6821 12.9584 44.0843 13.4277 44.0843 14.5674V18.9251C44.1514 19.3944 44.5536 19.8637 45.09 19.8637ZM55.2132 14.2322V16.7127C55.2132 18.791 53.8054 20.0648 51.4589 20.0648C49.1795 20.0648 47.7046 18.791 47.7046 16.7127V14.2322C47.7046 12.1539 49.1124 10.8801 51.4589 10.8801C53.8054 10.8801 55.2132 12.1539 55.2132 14.2322ZM52.8668 14.2322C52.8668 13.4277 52.3975 12.8914 51.5259 12.8914C50.6544 12.8914 50.1851 13.3606 50.1851 14.2322V16.7127C50.1851 17.5172 50.6544 17.9865 51.5259 17.9865C52.3975 17.9865 52.8668 17.5172 52.8668 16.7127V14.2322ZM37.9165 13.0925C37.9165 15.2378 36.3075 16.7127 34.1622 16.7127C33.6259 16.7127 33.1566 16.6457 32.6873 16.4446V19.4614C32.6873 19.6625 32.4861 19.8637 32.285 19.8637H30.7431C30.5419 19.8637 30.3408 19.6625 30.3408 19.4614V8.80182C30.3408 8.53365 30.5419 8.33252 30.7431 8.26548C31.7487 7.93028 32.7543 7.72915 33.827 7.72915C36.2405 7.72915 37.9165 9.20407 37.9165 11.4835V13.0925ZM35.503 11.3494C35.503 10.2767 34.7656 9.7404 33.7599 9.7404C33.1566 9.7404 32.7543 9.94152 32.7543 9.94152V14.3663C33.1566 14.5674 33.3577 14.6344 33.827 14.6344C34.8326 14.6344 35.5701 14.0311 35.5701 13.0254V11.3494H35.503ZM81.2253 13.0925C81.2253 15.2378 79.6163 16.7127 77.471 16.7127C76.9347 16.7127 76.4654 16.6457 75.9961 16.4446V19.4614C75.9961 19.6625 75.795 19.8637 75.5938 19.8637H74.0519C73.8508 19.8637 73.6496 19.6625 73.6496 19.4614V8.80182C73.6496 8.53365 73.8508 8.33252 74.0519 8.26548C75.0575 7.93028 76.0631 7.72915 77.1358 7.72915C79.5493 7.72915 81.2253 9.20407 81.2253 11.4835V13.0925ZM78.8118 11.3494C78.8118 10.2767 78.0744 9.7404 77.0688 9.7404C76.4654 9.7404 76.0631 9.94152 76.0631 9.94152V14.3663C76.4654 14.5674 76.6665 14.6344 77.1358 14.6344C78.1414 14.6344 78.8789 14.0311 78.8789 13.0254V11.3494H78.8118Z" fill="#5F259F"/>
<path d="M18.2733 8.86898C18.2733 8.39969 17.871 7.99744 17.4017 7.99744H15.7927L12.1055 3.77382C11.7703 3.37157 11.2339 3.23749 10.6976 3.37157L9.4238 3.77382C9.22267 3.84086 9.15563 4.10903 9.28972 4.24311L13.3122 8.06448H7.21143C7.0103 8.06448 6.87622 8.19856 6.87622 8.39969V9.0701C6.87622 9.5394 7.27847 9.94164 7.74776 9.94164H8.68634V13.1596C8.68634 15.5731 9.96013 16.981 12.1055 16.981C12.7759 16.981 13.3122 16.914 13.9826 16.6458V18.7911C13.9826 19.3945 14.4519 19.8638 15.0553 19.8638H15.9939C16.195 19.8638 16.3961 19.6627 16.3961 19.4615V9.8746H17.9381C18.1392 9.8746 18.2733 9.74052 18.2733 9.53939V8.86898ZM13.9826 14.6346C13.5804 14.8357 13.044 14.9027 12.6418 14.9027C11.5691 14.9027 11.0328 14.3664 11.0328 13.1596V9.94164H13.9826V14.6346Z" fill="white"/>
</svg>
