<svg xmlns="http://www.w3.org/2000/svg" width="575" height="573" viewBox="0 0 575 573" fill="none">
  <path d="M0 540.062H35.9375M0 540.062V576H35.9375M0 540.062V504.125M35.9375 540.062V576M35.9375 540.062H71.875M35.9375 540.062V504.125M35.9375 576H71.875M71.875 540.062V576M71.875 540.062H107.812M71.875 540.062V504.125M71.875 576H107.812M107.812 540.062V576M107.812 540.062H143.75M107.812 540.062V504.125M107.812 576H143.75M143.75 540.062V576M143.75 540.062H179.688M143.75 540.062V504.125M143.75 576H179.688M179.688 540.062V576M179.688 540.062H215.625M179.688 540.062V504.125M179.688 576H215.625M215.625 540.062V576M215.625 540.062H251.562M215.625 540.062V504.125M215.625 576H251.562M251.562 540.062V576M251.562 540.062H287.5M251.562 540.062V504.125M251.562 576H287.5M287.5 540.062V576M287.5 540.062H323.438M287.5 540.062V504.125M287.5 576H323.438M323.438 540.062V576M323.438 540.062H359.375M323.438 540.062V504.125M323.438 576H359.375M359.375 540.062V576M359.375 540.062H395.312M359.375 540.062V504.125M359.375 576H395.312M395.312 540.062V576M395.312 540.062H431.25M395.312 540.062V504.125M395.312 576H431.25M431.25 540.062V576M431.25 540.062H467.188M431.25 540.062V504.125M431.25 576H467.188M467.188 540.062V576M467.188 540.062H503.125M467.188 540.062V504.125M467.188 576H503.125M503.125 540.062V576M503.125 540.062H539.062M503.125 540.062V504.125M503.125 576H539.062M539.062 540.062V576M539.062 540.062H575M539.062 540.062V504.125M539.062 576H575V540.062M575 540.062V504.125M0 504.125H35.9375M0 504.125V468.188M35.9375 504.125H71.875M35.9375 504.125V468.188M71.875 504.125H107.812M71.875 504.125V468.188M107.812 504.125H143.75M107.812 504.125V468.188M143.75 504.125H179.688M143.75 504.125V468.188M179.688 504.125H215.625M179.688 504.125V468.188M215.625 504.125H251.562M215.625 504.125V468.188M251.562 504.125H287.5M251.562 504.125V468.188M287.5 504.125H323.438M287.5 504.125V468.188M323.438 504.125H359.375M323.438 504.125V468.188M359.375 504.125H395.312M359.375 504.125V468.188M395.312 504.125H431.25M395.312 504.125V468.188M431.25 504.125H467.188M431.25 504.125V468.188M467.188 504.125H503.125M467.188 504.125V468.188M503.125 504.125H539.062M503.125 504.125V468.188M539.062 504.125H575M539.062 504.125V468.188M575 504.125V468.188M0 468.188H35.9375M0 468.188V432.25M35.9375 468.188H71.875M35.9375 468.188V432.25M71.875 468.188H107.812M71.875 468.188V432.25M107.812 468.188H143.75M107.812 468.188V432.25M143.75 468.188H179.688M143.75 468.188V432.25M179.688 468.188H215.625M179.688 468.188V432.25M215.625 468.188H251.562M215.625 468.188V432.25M251.562 468.188H287.5M251.562 468.188V432.25M287.5 468.188H323.438M287.5 468.188V432.25M323.438 468.188H359.375M323.438 468.188V432.25M359.375 468.188H395.312M359.375 468.188V432.25M395.312 468.188H431.25M395.312 468.188V432.25M431.25 468.188H467.188M431.25 468.188V432.25M467.188 468.188H503.125M467.188 468.188V432.25M503.125 468.188H539.062M503.125 468.188V432.25M539.062 468.188H575M539.062 468.188V432.25M575 468.188V432.25M0 432.25H35.9375M0 432.25V396.312M35.9375 432.25H71.875M35.9375 432.25V396.312M71.875 432.25H107.812M71.875 432.25V396.312M107.812 432.25H143.75M107.812 432.25V396.312M143.75 432.25H179.688M143.75 432.25V396.312M179.688 432.25H215.625M179.688 432.25V396.312M215.625 432.25H251.562M215.625 432.25V396.312M251.562 432.25H287.5M251.562 432.25V396.312M287.5 432.25H323.438M287.5 432.25V396.312M323.438 432.25H359.375M323.438 432.25V396.312M359.375 432.25H395.312M359.375 432.25V396.312M395.312 432.25H431.25M395.312 432.25V396.312M431.25 432.25H467.188M431.25 432.25V396.312M467.188 432.25H503.125M467.188 432.25V396.312M503.125 432.25H539.062M503.125 432.25V396.312M539.062 432.25H575M539.062 432.25V396.312M575 432.25V396.312M0 396.312H35.9375M0 396.312V360.375M35.9375 396.312H71.875M35.9375 396.312V360.375M71.875 396.312H107.812M71.875 396.312V360.375M107.812 396.312H143.75M107.812 396.312V360.375M143.75 396.312H179.688M143.75 396.312V360.375M179.688 396.312H215.625M179.688 396.312V360.375M215.625 396.312H251.562M215.625 396.312V360.375M251.562 396.312H287.5M251.562 396.312V360.375M287.5 396.312H323.438M287.5 396.312V360.375M323.438 396.312H359.375M323.438 396.312V360.375M359.375 396.312H395.312M359.375 396.312V360.375M395.312 396.312H431.25M395.312 396.312V360.375M431.25 396.312H467.188M431.25 396.312V360.375M467.188 396.312H503.125M467.188 396.312V360.375M503.125 396.312H539.062M503.125 396.312V360.375M539.062 396.312H575M539.062 396.312V360.375M575 396.312V360.375M0 360.375H35.9375M0 360.375V324.438M35.9375 360.375H71.875M35.9375 360.375V324.438M71.875 360.375H107.812M71.875 360.375V324.438M107.812 360.375H143.75M107.812 360.375V324.438M143.75 360.375H179.688M143.75 360.375V324.438M179.688 360.375H215.625M179.688 360.375V324.438M215.625 360.375H251.562M215.625 360.375V324.438M251.562 360.375H287.5M251.562 360.375V324.438M287.5 360.375H323.438M287.5 360.375V324.438M323.438 360.375H359.375M323.438 360.375V324.438M359.375 360.375H395.312M359.375 360.375V324.438M395.312 360.375H431.25M395.312 360.375V324.438M431.25 360.375H467.188M431.25 360.375V324.438M467.188 360.375H503.125M467.188 360.375V324.438M503.125 360.375H539.062M503.125 360.375V324.438M539.062 360.375H575M539.062 360.375V324.438M575 360.375V324.438M0 324.438H35.9375M0 324.438V288.5M35.9375 324.438H71.875M35.9375 324.438V288.5M71.875 324.438H107.812M71.875 324.438V288.5M107.812 324.438H143.75M107.812 324.438V288.5M143.75 324.438H179.688M143.75 324.438V288.5M179.688 324.438H215.625M179.688 324.438V288.5M215.625 324.438H251.562M215.625 324.438V288.5M251.562 324.438H287.5M251.562 324.438V288.5M287.5 324.438H323.438M287.5 324.438V288.5M323.438 324.438H359.375M323.438 324.438V288.5M359.375 324.438H395.312M359.375 324.438V288.5M395.312 324.438H431.25M395.312 324.438V288.5M431.25 324.438H467.188M431.25 324.438V288.5M467.188 324.438H503.125M467.188 324.438V288.5M503.125 324.438H539.062M503.125 324.438V288.5M539.062 324.438H575M539.062 324.438V288.5M575 324.438V288.5M0 288.5H35.9375M0 288.5V252.562M35.9375 288.5H71.875M35.9375 288.5V252.562M71.875 288.5H107.812M71.875 288.5V252.562M107.812 288.5H143.75M107.812 288.5V252.562M143.75 288.5H179.688M143.75 288.5V252.562M179.688 288.5H215.625M179.688 288.5V252.562M215.625 288.5H251.562M215.625 288.5V252.562M251.562 288.5H287.5M251.562 288.5V252.562M287.5 288.5H323.438M287.5 288.5V252.562M323.438 288.5H359.375M323.438 288.5V252.562M359.375 288.5H395.312M359.375 288.5V252.562M395.312 288.5H431.25M395.312 288.5V252.562M431.25 288.5H467.188M431.25 288.5V252.562M467.188 288.5H503.125M467.188 288.5V252.562M503.125 288.5H539.062M503.125 288.5V252.562M539.062 288.5H575M539.062 288.5V252.562M575 288.5V252.562M0 252.562H35.9375M0 252.562V216.625M35.9375 252.562H71.875M35.9375 252.562V216.625M71.875 252.562H107.812M71.875 252.562V216.625M107.812 252.562H143.75M107.812 252.562V216.625M143.75 252.562H179.688M143.75 252.562V216.625M179.688 252.562H215.625M179.688 252.562V216.625M215.625 252.562H251.562M215.625 252.562V216.625M251.562 252.562H287.5M251.562 252.562V216.625M287.5 252.562H323.438M287.5 252.562V216.625M323.438 252.562H359.375M323.438 252.562V216.625M359.375 252.562H395.312M359.375 252.562V216.625M395.312 252.562H431.25M395.312 252.562V216.625M431.25 252.562H467.188M431.25 252.562V216.625M467.188 252.562H503.125M467.188 252.562V216.625M503.125 252.562H539.062M503.125 252.562V216.625M539.062 252.562H575M539.062 252.562V216.625M575 252.562V216.625M0 216.625H35.9375M0 216.625V180.688M35.9375 216.625H71.875M35.9375 216.625V180.688M71.875 216.625H107.812M71.875 216.625V180.688M107.812 216.625H143.75M107.812 216.625V180.688M143.75 216.625H179.688M143.75 216.625V180.688M179.688 216.625H215.625M179.688 216.625V180.688M215.625 216.625H251.562M215.625 216.625V180.688M251.562 216.625H287.5M251.562 216.625V180.688M287.5 216.625H323.438M287.5 216.625V180.688M323.438 216.625H359.375M323.438 216.625V180.688M359.375 216.625H395.312M359.375 216.625V180.688M395.312 216.625H431.25M395.312 216.625V180.688M431.25 216.625H467.188M431.25 216.625V180.688M467.188 216.625H503.125M467.188 216.625V180.688M503.125 216.625H539.062M503.125 216.625V180.688M539.062 216.625H575M539.062 216.625V180.688M575 216.625V180.688M0 180.688H35.9375M0 180.688V144.75M35.9375 180.688H71.875M35.9375 180.688V144.75M71.875 180.688H107.812M71.875 180.688V144.75M107.812 180.688H143.75M107.812 180.688V144.75M143.75 180.688H179.688M143.75 180.688V144.75M179.688 180.688H215.625M179.688 180.688V144.75M215.625 180.688H251.562M215.625 180.688V144.75M251.562 180.688H287.5M251.562 180.688V144.75M287.5 180.688H323.438M287.5 180.688V144.75M323.438 180.688H359.375M323.438 180.688V144.75M359.375 180.688H395.312M359.375 180.688V144.75M395.312 180.688H431.25M395.312 180.688V144.75M431.25 180.688H467.188M431.25 180.688V144.75M467.188 180.688H503.125M467.188 180.688V144.75M503.125 180.688H539.062M503.125 180.688V144.75M539.062 180.688H575M539.062 180.688V144.75M575 180.688V144.75M0 144.75H35.9375M0 144.75V108.812M35.9375 144.75H71.875M35.9375 144.75V108.812M71.875 144.75H107.812M71.875 144.75V108.812M107.812 144.75H143.75M107.812 144.75V108.812M143.75 144.75H179.688M143.75 144.75V108.812M179.688 144.75H215.625M179.688 144.75V108.812M215.625 144.75H251.562M215.625 144.75V108.812M251.562 144.75H287.5M251.562 144.75V108.812M287.5 144.75H323.438M287.5 144.75V108.812M323.438 144.75H359.375M323.438 144.75V108.812M359.375 144.75H395.312M359.375 144.75V108.812M395.312 144.75H431.25M395.312 144.75V108.812M431.25 144.75H467.188M431.25 144.75V108.812M467.188 144.75H503.125M467.188 144.75V108.812M503.125 144.75H539.062M503.125 144.75V108.812M539.062 144.75H575M539.062 144.75V108.812M575 144.75V108.812M0 108.812H35.9375M0 108.812V72.875M35.9375 108.812H71.875M35.9375 108.812V72.875M71.875 108.812H107.812M71.875 108.812V72.875M107.812 108.812H143.75M107.812 108.812V72.875M143.75 108.812H179.688M143.75 108.812V72.875M179.688 108.812H215.625M179.688 108.812V72.875M215.625 108.812H251.562M215.625 108.812V72.875M251.562 108.812H287.5M251.562 108.812V72.875M287.5 108.812H323.438M287.5 108.812V72.875M323.438 108.812H359.375M323.438 108.812V72.875M359.375 108.812H395.312M359.375 108.812V72.875M395.312 108.812H431.25M395.312 108.812V72.875M431.25 108.812H467.188M431.25 108.812V72.875M467.188 108.812H503.125M467.188 108.812V72.875M503.125 108.812H539.062M503.125 108.812V72.875M539.062 108.812H575M539.062 108.812V72.875M575 108.812V72.875M0 72.875H35.9375M0 72.875V36.9375M35.9375 72.875H71.875M35.9375 72.875V36.9375M71.875 72.875H107.812M71.875 72.875V36.9375M107.812 72.875H143.75M107.812 72.875V36.9375M143.75 72.875H179.688M143.75 72.875V36.9375M179.688 72.875H215.625M179.688 72.875V36.9375M215.625 72.875H251.562M215.625 72.875V36.9375M251.562 72.875H287.5M251.562 72.875V36.9375M287.5 72.875H323.438M287.5 72.875V36.9375M323.438 72.875H359.375M323.438 72.875V36.9375M359.375 72.875H395.312M359.375 72.875V36.9375M395.312 72.875H431.25M395.312 72.875V36.9375M431.25 72.875H467.188M431.25 72.875V36.9375M467.188 72.875H503.125M467.188 72.875V36.9375M503.125 72.875H539.062M503.125 72.875V36.9375M539.062 72.875H575M539.062 72.875V36.9375M575 72.875V36.9375M0 36.9375H35.9375M0 36.9375V1H35.9375M35.9375 36.9375H71.875M35.9375 36.9375V1M71.875 36.9375H107.812M71.875 36.9375V1M107.812 36.9375H143.75M107.812 36.9375V1M143.75 36.9375H179.688M143.75 36.9375V1M179.688 36.9375H215.625M179.688 36.9375V1M215.625 36.9375H251.562M215.625 36.9375V1M251.562 36.9375H287.5M251.562 36.9375V1M287.5 36.9375H323.438M287.5 36.9375V1M323.438 36.9375H359.375M323.438 36.9375V1M359.375 36.9375H395.312M359.375 36.9375V1M395.312 36.9375H431.25M395.312 36.9375V1M431.25 36.9375H467.188M431.25 36.9375V1M467.188 36.9375H503.125M467.188 36.9375V1M503.125 36.9375H539.062M503.125 36.9375V1M539.062 36.9375H575M539.062 36.9375V1M575 36.9375V1H539.062M35.9375 1H71.875M71.875 1H107.812M107.812 1H143.75M143.75 1H179.688M179.688 1H215.625M215.625 1H251.562M251.562 1H287.5M287.5 1H323.438M323.438 1H359.375M359.375 1H395.312M395.312 1H431.25M431.25 1H467.188M467.188 1H503.125M503.125 1H539.062" stroke="url(#paint0_linear_323_2000)"/>
  <defs>
    <linearGradient id="paint0_linear_323_2000" x1="288" y1="1" x2="287.5" y2="576" gradientUnits="userSpaceOnUse">
      <stop stop-color="#FFF2F6"/>
      <stop offset="1" stop-color="#F2D3DD"/>
    </linearGradient>
  </defs>
</svg>