<svg xmlns="http://www.w3.org/2000/svg" width="238" height="115" viewBox="0 0 238 115" fill="none">
  <path d="M0.119141 89.95V65.278L46.8931 2.57H76.0198V69.7327H94.3525V89.95H76.0198V113.765H52.7185V89.95H0.119141ZM52.7185 69.7327V27.242L21.0218 69.7327H52.7185Z" fill="white"/>
  <path d="M107.833 99.3733C107.833 90.8067 114.858 83.782 123.424 83.782C132.162 83.782 139.187 90.8067 139.187 99.3733C139.187 107.94 132.162 114.965 123.424 114.965C114.858 114.965 107.833 107.94 107.833 99.3733Z" fill="white"/>
  <path d="M179.715 45.5747L157.271 44.8893C156.928 43.3473 156.414 39.9207 156.414 37.1793C156.414 17.6473 171.149 0 197.02 0C221.863 0 237.112 16.448 237.112 35.8087C237.112 50.2007 229.231 61.8513 215.524 70.2467L194.107 83.268C189.824 86.0093 186.226 89.0933 184.513 93.3767H237.797V113.765H155.557C155.729 94.2333 161.897 78.2993 181.771 66.306L200.104 55.3407C209.527 49.6867 213.297 43.8613 213.297 36.1513C213.297 28.0987 207.643 20.9027 196.506 20.9027C184.684 20.9027 178.859 28.9553 178.859 39.4067C178.859 41.4627 179.201 43.69 179.715 45.5747Z" fill="white"/>
</svg>